<svg xmlns="http://www.w3.org/2000/svg" viewBox="0 0 1200 750" width="1200" height="750" role="img" aria-label="Abstract brand artwork">
<defs><radialGradient id="eg0" cx="50%" cy="50%" r="50%"><stop offset="0%" stop-color="#F07F72" stop-opacity="0.85"/><stop offset="100%" stop-color="#F07F72" stop-opacity="0"/></radialGradient><radialGradient id="eg1" cx="50%" cy="50%" r="50%"><stop offset="0%" stop-color="#F8AB73" stop-opacity="0.6"/><stop offset="100%" stop-color="#F8AB73" stop-opacity="0"/></radialGradient><radialGradient id="eg2" cx="50%" cy="50%" r="50%"><stop offset="0%" stop-color="#3D71F1" stop-opacity="0.5"/><stop offset="100%" stop-color="#3D71F1" stop-opacity="0"/></radialGradient>
<linearGradient id="eramp" x1="0" y1="0" x2="1" y2="1">
  <stop offset="0%" stop-color="#6F0EC7"/><stop offset="38%" stop-color="#3D71F1"/>
  <stop offset="62%" stop-color="#1D8DF9"/><stop offset="100%" stop-color="#F07F72"/>
</linearGradient>
<filter id="en"><feTurbulence type="fractalNoise" baseFrequency=".9" numOctaves="3" stitchTiles="stitch"/><feColorMatrix type="saturate" values="0"/></filter>
</defs>
<rect width="1200" height="750" fill="#0A0A10"/><ellipse cx="760" cy="330" rx="420" ry="420" fill="url(#eg0)"/><ellipse cx="1050" cy="560" rx="330" ry="330" fill="url(#eg1)"/><ellipse cx="220" cy="260" rx="360" ry="360" fill="url(#eg2)"/><ellipse cx="620" cy="380" rx="120" ry="52" fill="none" stroke="url(#eramp)" stroke-opacity="0.74" stroke-width="2.6" transform="rotate(0 620 380)"/><ellipse cx="620" cy="380" rx="172" ry="77" fill="none" stroke="url(#eramp)" stroke-opacity="0.693" stroke-width="1.3" transform="rotate(17 620 380)"/><ellipse cx="620" cy="380" rx="224" ry="102" fill="none" stroke="url(#eramp)" stroke-opacity="0.646" stroke-width="1.3" transform="rotate(34 620 380)"/><ellipse cx="620" cy="380" rx="276" ry="127" fill="none" stroke="url(#eramp)" stroke-opacity="0.599" stroke-width="2.6" transform="rotate(51 620 380)"/><ellipse cx="620" cy="380" rx="328" ry="152" fill="none" stroke="url(#eramp)" stroke-opacity="0.552" stroke-width="1.3" transform="rotate(68 620 380)"/><ellipse cx="620" cy="380" rx="380" ry="177" fill="none" stroke="url(#eramp)" stroke-opacity="0.505" stroke-width="1.3" transform="rotate(85 620 380)"/><ellipse cx="620" cy="380" rx="432" ry="202" fill="none" stroke="url(#eramp)" stroke-opacity="0.458" stroke-width="2.6" transform="rotate(102 620 380)"/><ellipse cx="620" cy="380" rx="484" ry="227" fill="none" stroke="url(#eramp)" stroke-opacity="0.411" stroke-width="1.3" transform="rotate(119 620 380)"/><ellipse cx="620" cy="380" rx="536" ry="252" fill="none" stroke="url(#eramp)" stroke-opacity="0.364" stroke-width="1.3" transform="rotate(136 620 380)"/><ellipse cx="620" cy="380" rx="588" ry="277" fill="none" stroke="url(#eramp)" stroke-opacity="0.317" stroke-width="2.6" transform="rotate(153 620 380)"/><ellipse cx="620" cy="380" rx="640" ry="302" fill="none" stroke="url(#eramp)" stroke-opacity="0.27" stroke-width="1.3" transform="rotate(170 620 380)"/><circle cx="620" cy="380" r="46" fill="#1D8DF9" opacity=".30"/><circle cx="620" cy="380" r="22" fill="#1D8DF9" opacity=".55"/><circle cx="620" cy="380" r="9" fill="#F6F3EE" opacity=".95"/><rect width="1200" height="750" filter="url(#en)" opacity=".14" style="mix-blend-mode:overlay"/></svg>